<svg width="519" height="24" viewBox="0 0 519 24" fill="none" xmlns="http://www.w3.org/2000/svg">
<path d="M1.12 18.5V6.98H9.944V18.5H8.768V8.108H2.296V18.5H1.12ZM11.3825 18.5V17.468C11.7025 17.5267 11.9452 17.5133 12.1105 17.428C12.2812 17.3373 12.4065 17.188 12.4865 16.98C12.5665 16.7667 12.6332 16.5027 12.6865 16.188C12.7718 15.6653 12.8492 15.0893 12.9185 14.46C12.9878 13.8307 13.0492 13.1373 13.1025 12.38C13.1612 11.6173 13.2198 10.7773 13.2785 9.86H19.1505V18.5H17.9825V10.988H14.3665C14.3292 11.5533 14.2865 12.116 14.2385 12.676C14.1905 13.236 14.1398 13.7747 14.0865 14.292C14.0385 14.804 13.9852 15.276 13.9265 15.708C13.8678 16.14 13.8065 16.5133 13.7425 16.828C13.6465 17.3027 13.5185 17.6813 13.3585 17.964C13.2038 18.2467 12.9718 18.4333 12.6625 18.524C12.3532 18.6147 11.9265 18.6067 11.3825 18.5ZM23.8576 18.74C23.207 18.74 22.6603 18.6227 22.2176 18.388C21.7803 18.1533 21.4523 17.8413 21.2336 17.452C21.015 17.0627 20.9056 16.6387 20.9056 16.18C20.9056 15.7107 20.999 15.3107 21.1856 14.98C21.3776 14.644 21.6363 14.3693 21.9616 14.156C22.2923 13.9427 22.6736 13.78 23.1056 13.668C23.543 13.5613 24.0256 13.468 24.5536 13.388C25.087 13.3027 25.607 13.2307 26.1136 13.172C26.6256 13.108 27.0736 13.0467 27.4576 12.988L27.0416 13.244C27.0576 12.3907 26.8923 11.7587 26.5456 11.348C26.199 10.9373 25.5963 10.732 24.7376 10.732C24.1456 10.732 23.6443 10.8653 23.2336 11.132C22.8283 11.3987 22.543 11.82 22.3776 12.396L21.2336 12.06C21.431 11.2867 21.8283 10.6867 22.4256 10.26C23.023 9.83333 23.799 9.62 24.7536 9.62C25.543 9.62 26.2123 9.76933 26.7616 10.068C27.3163 10.3613 27.7083 10.788 27.9376 11.348C28.0443 11.5987 28.1136 11.8787 28.1456 12.188C28.1776 12.4973 28.1936 12.812 28.1936 13.132V18.5H27.1456V16.332L27.4496 16.46C27.1563 17.2013 26.7003 17.7667 26.0816 18.156C25.463 18.5453 24.7216 18.74 23.8576 18.74ZM23.9936 17.724C24.543 17.724 25.023 17.6253 25.4336 17.428C25.8443 17.2307 26.175 16.9613 26.4256 16.62C26.6763 16.2733 26.839 15.884 26.9136 15.452C26.9776 15.1747 27.0123 14.8707 27.0176 14.54C27.023 14.204 27.0256 13.9533 27.0256 13.788L27.4736 14.02C27.0736 14.0733 26.639 14.1267 26.1696 14.18C25.7056 14.2333 25.247 14.2947 24.7936 14.364C24.3456 14.4333 23.9403 14.516 23.5776 14.612C23.3323 14.6813 23.095 14.78 22.8656 14.908C22.6363 15.0307 22.447 15.196 22.2976 15.404C22.1536 15.612 22.0816 15.8707 22.0816 16.18C22.0816 16.4307 22.143 16.6733 22.2656 16.908C22.3936 17.1427 22.5963 17.3373 22.8736 17.492C23.1563 17.6467 23.5296 17.724 23.9936 17.724ZM30.2683 18.5V9.86H31.4443V13.612H36.3163V9.86H37.4923V18.5H36.3163V14.74H31.4443V18.5H30.2683ZM46.5934 9.86V18.5H45.4494V11.772L40.7134 18.5H39.7214V9.86H40.8654V16.532L45.6094 9.86H46.5934ZM52.7188 18.74C51.9241 18.74 51.2521 18.54 50.7028 18.14C50.1534 17.7347 49.7374 17.188 49.4548 16.5C49.1721 15.8067 49.0308 15.0307 49.0308 14.172C49.0308 13.2973 49.1721 12.5187 49.4548 11.836C49.7428 11.148 50.1641 10.6067 50.7188 10.212C51.2734 9.81733 51.9561 9.62 52.7668 9.62C53.5561 9.62 54.2334 9.82 54.7988 10.22C55.3641 10.62 55.7961 11.164 56.0948 11.852C56.3988 12.54 56.5508 13.3133 56.5508 14.172C56.5508 15.036 56.3988 15.812 56.0948 16.5C55.7908 17.188 55.3534 17.7347 54.7828 18.14C54.2121 18.54 53.5241 18.74 52.7188 18.74ZM48.8308 22.34V9.86H49.8868V16.364H50.0148V22.34H48.8308ZM52.5988 17.644C53.2014 17.644 53.7028 17.492 54.1028 17.188C54.5028 16.884 54.8014 16.4707 54.9988 15.948C55.2014 15.42 55.3028 14.828 55.3028 14.172C55.3028 13.5213 55.2041 12.9347 55.0068 12.412C54.8094 11.8893 54.5081 11.476 54.1028 11.172C53.7028 10.868 53.1934 10.716 52.5748 10.716C51.9721 10.716 51.4708 10.8627 51.0708 11.156C50.6761 11.4493 50.3801 11.8573 50.1828 12.38C49.9854 12.8973 49.8868 13.4947 49.8868 14.172C49.8868 14.8387 49.9854 15.436 50.1828 15.964C50.3801 16.4867 50.6788 16.8973 51.0788 17.196C51.4788 17.4947 51.9854 17.644 52.5988 17.644ZM59.227 22.34L60.899 17.804L60.923 19.148L57.139 9.86H58.387L61.491 17.628H60.979L63.843 9.86H65.043L60.403 22.34H59.227ZM70.0885 18.74C69.2458 18.74 68.5152 18.5533 67.8965 18.18C67.2832 17.8067 66.8058 17.2813 66.4645 16.604C66.1232 15.9267 65.9525 15.132 65.9525 14.22C65.9525 13.276 66.1205 12.46 66.4565 11.772C66.7925 11.084 67.2645 10.5533 67.8725 10.18C68.4858 9.80667 69.2085 9.62 70.0405 9.62C70.8938 9.62 71.6218 9.81733 72.2245 10.212C72.8272 10.6013 73.2832 11.1613 73.5925 11.892C73.9018 12.6227 74.0432 13.4947 74.0165 14.508H72.8165V14.092C72.7952 12.972 72.5525 12.1267 72.0885 11.556C71.6298 10.9853 70.9578 10.7 70.0725 10.7C69.1445 10.7 68.4325 11.0013 67.9365 11.604C67.4458 12.2067 67.2005 13.0653 67.2005 14.18C67.2005 15.268 67.4458 16.1133 67.9365 16.716C68.4325 17.3133 69.1338 17.612 70.0405 17.612C70.6592 17.612 71.1978 17.4707 71.6565 17.188C72.1205 16.9 72.4858 16.4867 72.7525 15.948L73.8485 16.372C73.5072 17.124 73.0032 17.708 72.3365 18.124C71.6752 18.5347 70.9258 18.74 70.0885 18.74ZM66.7845 14.508V13.524H73.3845V14.508H66.7845ZM75.5495 18.5V9.86H76.5975L79.9655 16.932L83.3415 9.86H84.3815V18.5H83.2455V12.372L80.3415 18.5H79.5975L76.6935 12.372V18.5H75.5495ZM89.092 18.74C88.4413 18.74 87.8947 18.6227 87.452 18.388C87.0147 18.1533 86.6867 17.8413 86.468 17.452C86.2493 17.0627 86.14 16.6387 86.14 16.18C86.14 15.7107 86.2333 15.3107 86.42 14.98C86.612 14.644 86.8707 14.3693 87.196 14.156C87.5267 13.9427 87.908 13.78 88.34 13.668C88.7773 13.5613 89.26 13.468 89.788 13.388C90.3213 13.3027 90.8413 13.2307 91.348 13.172C91.86 13.108 92.308 13.0467 92.692 12.988L92.276 13.244C92.292 12.3907 92.1267 11.7587 91.78 11.348C91.4333 10.9373 90.8307 10.732 89.972 10.732C89.38 10.732 88.8787 10.8653 88.468 11.132C88.0627 11.3987 87.7773 11.82 87.612 12.396L86.468 12.06C86.6653 11.2867 87.0627 10.6867 87.66 10.26C88.2573 9.83333 89.0333 9.62 89.988 9.62C90.7773 9.62 91.4467 9.76933 91.996 10.068C92.5507 10.3613 92.9427 10.788 93.172 11.348C93.2787 11.5987 93.348 11.8787 93.38 12.188C93.412 12.4973 93.428 12.812 93.428 13.132V18.5H92.38V16.332L92.684 16.46C92.3907 17.2013 91.9347 17.7667 91.316 18.156C90.6973 18.5453 89.956 18.74 89.092 18.74ZM89.228 17.724C89.7773 17.724 90.2573 17.6253 90.668 17.428C91.0787 17.2307 91.4093 16.9613 91.66 16.62C91.9107 16.2733 92.0733 15.884 92.148 15.452C92.212 15.1747 92.2467 14.8707 92.252 14.54C92.2573 14.204 92.26 13.9533 92.26 13.788L92.708 14.02C92.308 14.0733 91.8733 14.1267 91.404 14.18C90.94 14.2333 90.4813 14.2947 90.028 14.364C89.58 14.4333 89.1747 14.516 88.812 14.612C88.5667 14.6813 88.3293 14.78 88.1 14.908C87.8707 15.0307 87.6813 15.196 87.532 15.404C87.388 15.612 87.316 15.8707 87.316 16.18C87.316 16.4307 87.3773 16.6733 87.5 16.908C87.628 17.1427 87.8307 17.3373 88.108 17.492C88.3907 17.6467 88.764 17.724 89.228 17.724ZM100.927 18.5V15.244H98.9106C98.676 15.244 98.4333 15.236 98.1826 15.22C97.9373 15.1987 97.708 15.1693 97.4946 15.132C96.8866 15.0147 96.3693 14.748 95.9426 14.332C95.5213 13.9107 95.3106 13.3293 95.3106 12.588C95.3106 11.8627 95.508 11.2813 95.9026 10.844C96.2973 10.4013 96.7746 10.1133 97.3346 9.98C97.5906 9.92133 97.8493 9.88667 98.1106 9.876C98.3773 9.86533 98.6066 9.86 98.7986 9.86H102.103L102.111 18.5H100.927ZM95.0306 18.5L97.4386 14.876H98.7426L96.3186 18.5H95.0306ZM98.8466 14.236H100.927V10.868H98.8466C98.7186 10.868 98.54 10.8733 98.3106 10.884C98.0813 10.8947 97.8653 10.9293 97.6626 10.988C97.4866 11.0413 97.3106 11.1347 97.1346 11.268C96.964 11.396 96.82 11.5693 96.7026 11.788C96.5853 12.0013 96.5266 12.2627 96.5266 12.572C96.5266 13.004 96.644 13.3507 96.8786 13.612C97.1186 13.868 97.4173 14.044 97.7746 14.14C97.9666 14.1827 98.1586 14.2093 98.3506 14.22C98.5426 14.2307 98.708 14.236 98.8466 14.236ZM106.918 20.42V17.492C107.408 17.492 107.76 17.3347 107.974 17.02C108.187 16.7 108.36 16.1907 108.493 15.492C108.584 15.0387 108.659 14.5507 108.718 14.028C108.776 13.5053 108.827 12.908 108.87 12.236C108.912 11.5587 108.952 10.7667 108.99 9.86H114.701V17.492H115.534V20.42H114.398V18.5H108.046V20.42H106.918ZM108.91 17.492H113.534V10.868H110.078C110.062 11.2733 110.038 11.7027 110.006 12.156C109.979 12.6093 109.944 13.0627 109.902 13.516C109.864 13.9693 109.819 14.396 109.766 14.796C109.718 15.1907 109.659 15.5373 109.59 15.836C109.51 16.22 109.422 16.548 109.326 16.82C109.235 17.092 109.096 17.316 108.91 17.492ZM119.608 18.74C118.957 18.74 118.41 18.6227 117.968 18.388C117.53 18.1533 117.202 17.8413 116.984 17.452C116.765 17.0627 116.656 16.6387 116.656 16.18C116.656 15.7107 116.749 15.3107 116.936 14.98C117.128 14.644 117.386 14.3693 117.712 14.156C118.042 13.9427 118.424 13.78 118.856 13.668C119.293 13.5613 119.776 13.468 120.304 13.388C120.837 13.3027 121.357 13.2307 121.864 13.172C122.376 13.108 122.824 13.0467 123.208 12.988L122.792 13.244C122.808 12.3907 122.642 11.7587 122.296 11.348C121.949 10.9373 121.346 10.732 120.488 10.732C119.896 10.732 119.394 10.8653 118.984 11.132C118.578 11.3987 118.293 11.82 118.128 12.396L116.984 12.06C117.181 11.2867 117.578 10.6867 118.176 10.26C118.773 9.83333 119.549 9.62 120.504 9.62C121.293 9.62 121.962 9.76933 122.512 10.068C123.066 10.3613 123.458 10.788 123.688 11.348C123.794 11.5987 123.864 11.8787 123.896 12.188C123.928 12.4973 123.944 12.812 123.944 13.132V18.5H122.896V16.332L123.2 16.46C122.906 17.2013 122.45 17.7667 121.832 18.156C121.213 18.5453 120.472 18.74 119.608 18.74ZM119.744 17.724C120.293 17.724 120.773 17.6253 121.184 17.428C121.594 17.2307 121.925 16.9613 122.176 16.62C122.426 16.2733 122.589 15.884 122.664 15.452C122.728 15.1747 122.762 14.8707 122.768 14.54C122.773 14.204 122.776 13.9533 122.776 13.788L123.224 14.02C122.824 14.0733 122.389 14.1267 121.92 14.18C121.456 14.2333 120.997 14.2947 120.544 14.364C120.096 14.4333 119.69 14.516 119.328 14.612C119.082 14.6813 118.845 14.78 118.616 14.908C118.386 15.0307 118.197 15.196 118.048 15.404C117.904 15.612 117.832 15.8707 117.832 16.18C117.832 16.4307 117.893 16.6733 118.016 16.908C118.144 17.1427 118.346 17.3373 118.624 17.492C118.906 17.6467 119.28 17.724 119.744 17.724ZM128.37 18.5V10.948H125.306V9.86H132.61V10.948H129.546V18.5H128.37ZM136.28 18.74C135.629 18.74 135.082 18.6227 134.64 18.388C134.202 18.1533 133.874 17.8413 133.656 17.452C133.437 17.0627 133.328 16.6387 133.328 16.18C133.328 15.7107 133.421 15.3107 133.608 14.98C133.8 14.644 134.058 14.3693 134.384 14.156C134.714 13.9427 135.096 13.78 135.528 13.668C135.965 13.5613 136.448 13.468 136.976 13.388C137.509 13.3027 138.029 13.2307 138.536 13.172C139.048 13.108 139.496 13.0467 139.88 12.988L139.464 13.244C139.48 12.3907 139.314 11.7587 138.968 11.348C138.621 10.9373 138.018 10.732 137.16 10.732C136.568 10.732 136.066 10.8653 135.656 11.132C135.25 11.3987 134.965 11.82 134.799 12.396L133.656 12.06C133.853 11.2867 134.25 10.6867 134.848 10.26C135.445 9.83333 136.221 9.62 137.176 9.62C137.965 9.62 138.634 9.76933 139.184 10.068C139.738 10.3613 140.13 10.788 140.36 11.348C140.466 11.5987 140.536 11.8787 140.568 12.188C140.6 12.4973 140.616 12.812 140.616 13.132V18.5H139.568V16.332L139.872 16.46C139.578 17.2013 139.122 17.7667 138.504 18.156C137.885 18.5453 137.144 18.74 136.28 18.74ZM136.416 17.724C136.965 17.724 137.445 17.6253 137.856 17.428C138.266 17.2307 138.597 16.9613 138.848 16.62C139.098 16.2733 139.261 15.884 139.336 15.452C139.4 15.1747 139.434 14.8707 139.44 14.54C139.445 14.204 139.448 13.9533 139.448 13.788L139.896 14.02C139.496 14.0733 139.061 14.1267 138.592 14.18C138.128 14.2333 137.669 14.2947 137.216 14.364C136.768 14.4333 136.362 14.516 136 14.612C135.754 14.6813 135.517 14.78 135.288 14.908C135.058 15.0307 134.869 15.196 134.72 15.404C134.576 15.612 134.504 15.8707 134.504 16.18C134.504 16.4307 134.565 16.6733 134.688 16.908C134.816 17.1427 135.018 17.3373 135.296 17.492C135.578 17.6467 135.952 17.724 136.416 17.724ZM145.893 18.5V9.86H149.453C149.635 9.86 149.853 9.87067 150.109 9.892C150.371 9.91333 150.613 9.95333 150.837 10.012C151.323 10.14 151.712 10.4013 152.005 10.796C152.304 11.1907 152.453 11.6653 152.453 12.22C152.453 12.5293 152.405 12.8067 152.309 13.052C152.219 13.292 152.088 13.5 151.917 13.676C151.837 13.7667 151.749 13.8467 151.653 13.916C151.557 13.98 151.464 14.0333 151.373 14.076C151.544 14.108 151.728 14.1827 151.925 14.3C152.235 14.4813 152.469 14.7267 152.629 15.036C152.789 15.34 152.869 15.7107 152.869 16.148C152.869 16.74 152.728 17.2227 152.445 17.596C152.163 17.9693 151.784 18.2253 151.309 18.364C151.096 18.4227 150.864 18.46 150.613 18.476C150.368 18.492 150.136 18.5 149.917 18.5H145.893ZM147.077 17.5H149.861C149.973 17.5 150.115 17.492 150.285 17.476C150.456 17.4547 150.608 17.428 150.741 17.396C151.056 17.316 151.285 17.156 151.429 16.916C151.579 16.6707 151.653 16.404 151.653 16.116C151.653 15.7373 151.541 15.428 151.317 15.188C151.099 14.9427 150.805 14.7933 150.437 14.74C150.315 14.7133 150.187 14.6973 150.053 14.692C149.92 14.6867 149.8 14.684 149.693 14.684H147.077V17.5ZM147.077 13.676H149.493C149.632 13.676 149.787 13.668 149.957 13.652C150.133 13.6307 150.285 13.596 150.413 13.548C150.691 13.452 150.893 13.2867 151.021 13.052C151.155 12.8173 151.221 12.5613 151.221 12.284C151.221 11.98 151.149 11.7133 151.005 11.484C150.867 11.2547 150.656 11.0947 150.373 11.004C150.181 10.9347 149.973 10.8947 149.749 10.884C149.531 10.8733 149.392 10.868 149.333 10.868H147.077V13.676ZM158.048 18.74C157.178 18.74 156.442 18.5453 155.84 18.156C155.237 17.7667 154.778 17.2307 154.464 16.548C154.154 15.86 153.994 15.0707 153.984 14.18C153.994 13.2733 154.16 12.4787 154.48 11.796C154.8 11.108 155.261 10.5747 155.864 10.196C156.466 9.812 157.197 9.62 158.056 9.62C158.93 9.62 159.69 9.83333 160.336 10.26C160.986 10.6867 161.432 11.2707 161.672 12.012L160.52 12.38C160.317 11.8627 159.994 11.4627 159.552 11.18C159.114 10.892 158.613 10.748 158.048 10.748C157.413 10.748 156.888 10.8947 156.472 11.188C156.056 11.476 155.746 11.8787 155.544 12.396C155.341 12.9133 155.237 13.508 155.232 14.18C155.242 15.2147 155.482 16.0467 155.952 16.676C156.421 17.3 157.12 17.612 158.048 17.612C158.634 17.612 159.133 17.4787 159.544 17.212C159.96 16.94 160.274 16.5453 160.488 16.028L161.672 16.38C161.352 17.148 160.882 17.7347 160.264 18.14C159.645 18.54 158.906 18.74 158.048 18.74ZM165.464 18.5V10.948H162.4V9.86H169.704V10.948H166.64V18.5H165.464ZM175.109 18.74C174.315 18.74 173.643 18.54 173.093 18.14C172.544 17.7347 172.128 17.188 171.845 16.5C171.563 15.8067 171.421 15.0307 171.421 14.172C171.421 13.2973 171.563 12.5187 171.845 11.836C172.133 11.148 172.555 10.6067 173.109 10.212C173.664 9.81733 174.347 9.62 175.157 9.62C175.947 9.62 176.624 9.82 177.189 10.22C177.755 10.62 178.187 11.164 178.485 11.852C178.789 12.54 178.941 13.3133 178.941 14.172C178.941 15.036 178.789 15.812 178.485 16.5C178.181 17.188 177.744 17.7347 177.173 18.14C176.603 18.54 175.915 18.74 175.109 18.74ZM171.221 22.34V9.86H172.277V16.364H172.405V22.34H171.221ZM174.989 17.644C175.592 17.644 176.093 17.492 176.493 17.188C176.893 16.884 177.192 16.4707 177.389 15.948C177.592 15.42 177.693 14.828 177.693 14.172C177.693 13.5213 177.595 12.9347 177.397 12.412C177.2 11.8893 176.899 11.476 176.493 11.172C176.093 10.868 175.584 10.716 174.965 10.716C174.363 10.716 173.861 10.8627 173.461 11.156C173.067 11.4493 172.771 11.8573 172.573 12.38C172.376 12.8973 172.277 13.4947 172.277 14.172C172.277 14.8387 172.376 15.436 172.573 15.964C172.771 16.4867 173.069 16.8973 173.469 17.196C173.869 17.4947 174.376 17.644 174.989 17.644ZM184.354 18.74C183.511 18.74 182.781 18.5533 182.162 18.18C181.549 17.8067 181.071 17.2813 180.73 16.604C180.389 15.9267 180.218 15.132 180.218 14.22C180.218 13.276 180.386 12.46 180.722 11.772C181.058 11.084 181.53 10.5533 182.138 10.18C182.751 9.80667 183.474 9.62 184.306 9.62C185.159 9.62 185.887 9.81733 186.49 10.212C187.093 10.6013 187.549 11.1613 187.858 11.892C188.167 12.6227 188.309 13.4947 188.282 14.508H187.082V14.092C187.061 12.972 186.818 12.1267 186.354 11.556C185.895 10.9853 185.223 10.7 184.338 10.7C183.41 10.7 182.698 11.0013 182.202 11.604C181.711 12.2067 181.466 13.0653 181.466 14.18C181.466 15.268 181.711 16.1133 182.202 16.716C182.698 17.3133 183.399 17.612 184.306 17.612C184.925 17.612 185.463 17.4707 185.922 17.188C186.386 16.9 186.751 16.4867 187.018 15.948L188.114 16.372C187.773 17.124 187.269 17.708 186.602 18.124C185.941 18.5347 185.191 18.74 184.354 18.74ZM181.05 14.508V13.524H187.65V14.508H181.05ZM195.346 18.5V15.284C195.058 15.428 194.703 15.5533 194.282 15.66C193.86 15.7667 193.407 15.82 192.922 15.82C192.047 15.82 191.338 15.6253 190.794 15.236C190.25 14.8467 189.895 14.284 189.73 13.548C189.676 13.3293 189.639 13.0973 189.618 12.852C189.602 12.6067 189.591 12.3853 189.586 12.188C189.58 11.9907 189.578 11.8493 189.578 11.764V9.86H190.762V11.764C190.762 11.94 190.767 12.14 190.778 12.364C190.788 12.588 190.812 12.8067 190.85 13.02C190.956 13.6013 191.196 14.0413 191.57 14.34C191.948 14.6387 192.479 14.788 193.161 14.788C193.588 14.788 193.991 14.7347 194.37 14.628C194.754 14.516 195.079 14.3667 195.346 14.18V9.86H196.522V18.5H195.346ZM205.625 9.86V18.5H204.481V11.772L199.745 18.5H198.753V9.86H199.897V16.532L204.641 9.86H205.625Z" fill="#283851"/>
<path d="M514 4H500C498.895 4 498 4.89543 498 6V20C498 21.1046 498.895 22 500 22H514C515.105 22 516 21.1046 516 20V6C516 4.89543 515.105 4 514 4Z" stroke="#283851" stroke-width="1.5" stroke-linecap="round" stroke-linejoin="round"/>
<path d="M511 2V6" stroke="#283851" stroke-width="1.5" stroke-linecap="round" stroke-linejoin="round"/>
<path d="M503 2V6" stroke="#283851" stroke-width="1.5" stroke-linecap="round" stroke-linejoin="round"/>
<path d="M498 10H516" stroke="#283851" stroke-width="1.5" stroke-linecap="round" stroke-linejoin="round"/>
</svg>
