<svg width="19" height="18" viewBox="0 0 19 18" fill="none" xmlns="http://www.w3.org/2000/svg">
<g clip-path="url(#clip0_3024_2468)">
<path fill-rule="evenodd" clip-rule="evenodd" d="M4.24555 10.4685L2.73862 11.9771C2.51924 12.1971 2.51924 12.5531 2.73862 12.7725C2.95855 12.9924 3.31518 12.9919 3.53455 12.7725L5.23724 11.0676C6.41737 11.7139 7.8118 12.2454 9.3148 12.3546L9.3238 14.6271C9.32493 14.9376 9.57805 15.1884 9.88855 15.1873C10.1991 15.1862 10.4499 14.9331 10.4488 14.6226L10.4398 12.354C11.7229 12.2606 12.9266 11.859 13.9847 11.3415C13.9858 11.3426 13.9869 11.3437 13.9886 11.3449L15.9759 13.335C16.1959 13.5544 16.5519 13.5549 16.7719 13.335C16.9912 13.1156 16.9912 12.7596 16.7719 12.5396L15.0135 10.779C16.9344 9.61856 18.1691 8.25 18.1691 8.25C18.3761 8.01881 18.3564 7.66331 18.1252 7.45575C17.8941 7.24875 17.5386 7.26843 17.331 7.49962C17.331 7.49962 13.9954 11.2498 9.87505 11.2498C5.75474 11.2498 2.41912 7.49962 2.41912 7.49962C2.21155 7.26843 1.85605 7.24875 1.62487 7.45575C1.39368 7.66331 1.37399 8.01881 1.58099 8.25C1.58099 8.25 2.60812 9.3885 4.24555 10.4685Z" fill="#283851"/>
</g>
<defs>
<clipPath id="clip0_3024_2468">
<rect width="18" height="18" fill="white" transform="translate(0.875)"/>
</clipPath>
</defs>
</svg>
