<svg width="18" height="18" viewBox="0 0 18 18" fill="none" xmlns="http://www.w3.org/2000/svg">
<path fill-rule="evenodd" clip-rule="evenodd" d="M8.43748 5.64413C6.92941 5.74988 5.52991 6.28144 4.34754 6.92831L2.64766 5.22731C2.42829 5.00794 2.07223 5.00738 1.85229 5.22731C1.63291 5.44669 1.63235 5.80275 1.85229 6.02269L3.35473 7.52681C1.82866 8.53256 0.832476 9.58894 0.703101 9.72956C0.701976 9.73125 0.700851 9.73238 0.699726 9.7335C0.548413 9.90169 0.510726 10.1436 0.602976 10.35C0.637851 10.4265 4.71091 14.625 8.99998 14.625C13.568 14.625 17.2867 10.5086 17.2912 10.5036C17.402 10.3821 17.4538 10.2178 17.433 10.0541C17.4127 9.89213 15.7483 8.20575 14.1238 7.22363L15.8855 5.46019C16.1049 5.24025 16.1049 4.88419 15.8855 4.66481C15.6656 4.44488 15.309 4.44544 15.0896 4.66481L13.1023 6.65494C13.1 6.65663 13.0978 6.65887 13.0955 6.66112C12.0409 6.14475 10.841 5.74312 9.56248 5.64694V3.375C9.56248 3.0645 9.31048 2.8125 8.99998 2.8125C8.68948 2.8125 8.43748 3.0645 8.43748 3.375V5.64413ZM8.99041 6.75C9.01066 6.75 9.03091 6.75 9.05116 6.75056C10.8905 6.77813 12.375 8.27944 12.375 10.125C12.375 11.9874 10.8624 13.5 8.99998 13.5C7.13754 13.5 5.62498 11.9874 5.62498 10.125C5.62498 8.26538 7.13191 6.75563 8.99041 6.75ZM5.18566 7.73775C3.65229 8.51512 2.47273 9.55687 1.89898 10.1154C2.45698 10.6622 3.63654 11.7113 5.1761 12.4976C4.74748 11.8086 4.49998 10.9958 4.49998 10.125C4.49998 9.24806 4.75141 8.42962 5.18566 7.73775ZM12.8334 7.76869C13.2559 8.45381 13.5 9.261 13.5 10.125C13.5 10.9958 13.2525 11.8086 12.8239 12.4976C14.3437 11.7214 15.5126 10.6886 16.0802 10.1357C15.5239 9.59119 14.3572 8.55281 12.8334 7.76869Z" fill="#283851"/>
</svg>

