<svg width="15" height="16" viewBox="0 0 15 16" fill="none" xmlns="http://www.w3.org/2000/svg">
<path d="M13.75 5.02501C13.7505 4.94276 13.7347 4.86122 13.7036 4.78507C13.6725 4.70892 13.6267 4.63966 13.5688 4.58126L10.9188 1.93126C10.8604 1.87333 10.7911 1.82751 10.715 1.7964C10.6388 1.7653 10.5573 1.74953 10.475 1.75001C10.3928 1.74953 10.3112 1.7653 10.2351 1.7964C10.1589 1.82751 10.0897 1.87333 10.0313 1.93126L8.26251 3.70001L1.43126 10.5313C1.37333 10.5897 1.32751 10.6589 1.2964 10.7351C1.2653 10.8112 1.24953 10.8928 1.25001 10.975V13.625C1.25001 13.7908 1.31586 13.9497 1.43307 14.067C1.55028 14.1842 1.70925 14.25 1.87501 14.25H4.52501C4.61247 14.2548 4.69994 14.2411 4.78177 14.2099C4.8636 14.1786 4.93795 14.1306 5.00001 14.0688L11.7938 7.23751L13.5688 5.50001C13.6258 5.43944 13.6723 5.36972 13.7063 5.29376C13.7123 5.24394 13.7123 5.19358 13.7063 5.14376C13.7092 5.11467 13.7092 5.08535 13.7063 5.05626L13.75 5.02501ZM4.26876 13H2.50001V11.2313L8.70626 5.02501L10.475 6.79376L4.26876 13ZM11.3563 5.91251L9.58751 4.14376L10.475 3.26251L12.2375 5.02501L11.3563 5.91251Z" fill="currentColor"/>
</svg>
