<svg width="64" height="64" viewBox="0 0 64 64" fill="none" xmlns="http://www.w3.org/2000/svg">
<circle cx="32" cy="32" r="32" fill="#283851"/>
<path d="M39.9469 47.472H45.9998L45.203 42.2291L45.9998 37.3147L44.6019 31.9249L45.3288 22.7323L43.9449 19.1391V17H41.7572V17.8389H38.7377L37.885 19.0762L34.9145 20.4603L36.0957 22.5086L39.1082 22.9909L37.0882 24.6198L35.2989 24.0395L33.6074 21.0336L31.5106 19.7263L29.2739 20.006L31.7412 22.4876L32.6429 26.8987L34.6349 28.0102L33.1252 29.2126L29.225 28.9609L26.9395 30.1913L30.0009 31.89L31.4477 31.5335L34.7537 32.9386L36.3473 32.2605L35.879 35.3573L33.0273 39.2091L34.0058 45.3259L32.1327 46.2906L31.4966 47.472H37.3329L36.9135 44.0326L39.4926 40.9428L42.4212 45.284L40.4921 46.3046L39.9469 47.472Z" fill="white"/>
<path d="M24.2718 17.0033L23.1992 18.076L24.2718 19.1487L25.3444 18.076L24.2718 17.0033Z" fill="white"/>
<path d="M27.1143 39.5586H25.0594V32.4911L26.0449 31.5055L25.0594 30.5198V28.3527L30.5462 22.8651L26.4433 18.7616L24.2696 20.9357L22.0959 18.7616L18 22.8651L23.4868 28.3527V30.5198L22.5012 31.5055L23.4868 32.4911V39.5586H21.4668V38.5729H19.8942V42.1102H21.4668V41.1245H23.4868V44.9134H21.4668V43.9277H19.8942V47.465H21.4668V46.4793H27.1143V47.465H28.687V43.9277H27.1143V44.9134H25.0594V41.1245H27.1143V42.1102H28.687V38.5729H27.1143V39.5586ZM22.1028 20.9776L23.1652 22.0402L22.3615 22.8441L23.4728 23.9556L24.2766 23.1517L25.0804 23.9556L26.1917 22.8441L25.3879 22.0402L26.4503 20.9776L28.3305 22.8581L24.2766 26.9126L20.2227 22.8581L22.1028 20.9776Z" fill="white"/>
</svg>
